<?xml version="1.0" encoding="UTF-8" standalone="no"?>
<svg width="686px" height="439px" viewBox="0 0 686 439" version="1.1" xmlns="http://www.w3.org/2000/svg" xmlns:xlink="http://www.w3.org/1999/xlink" xmlns:sketch="http://www.bohemiancoding.com/sketch/ns">
    <!-- Generator: Sketch 3.2 (9961) - http://www.bohemiancoding.com/sketch -->
    <title>Untitled 2</title>
    <desc>Created with Sketch.</desc>
    <defs></defs>
    <g id="Page-1" stroke="none" stroke-width="1" fill="none" fill-rule="evenodd" sketch:type="MSPage">
        <path d="M32.8203125,99.59375 C23.138951,124.040134 4.85075336,171.0101 16.15625,193.621094" id="Path-1" stroke="#979797" stroke-width="2" sketch:type="MSShapeGroup"></path>
        <path d="M33.5,98.5 L320.5,186.5" id="Line" stroke="#979797" stroke-width="2" stroke-linecap="square" sketch:type="MSShapeGroup"></path>
        <path d="M321,186 L594.5,89.5" id="Line" stroke="#979797" stroke-width="2" stroke-linecap="square" sketch:type="MSShapeGroup"></path>
        <path d="M595,89 L683.5,124.5" id="Line" stroke="#979797" stroke-width="2" stroke-linecap="square" sketch:type="MSShapeGroup"></path>
        <path d="M684,125 L486.5,318.5" id="Line" stroke="#979797" stroke-width="2" stroke-linecap="square" sketch:type="MSShapeGroup"></path>
        <path d="M19.1015625,196.132812 C26.4124726,194.757253 35.3842823,203.261271 43.40625,199.257812 C48.069033,196.930795 55.1208047,195.443318 61.3359375,196.480469 C71.3932509,198.158783 66.6737158,208.251841 70.3632812,211.941406 C72.266276,213.844401 79.8782552,210.038411 81.78125,211.941406 C83.2676101,213.427766 82.40932,217.284345 83.8632812,218.800781 C86.2756279,221.316783 96.5603096,216.284779 98.9726562,218.800781 C100.629259,220.528566 101.201501,225.914273 102.445312,227.703125 C104.668421,230.900405 121.71846,225.828376 125.460938,227.703125 C132.201404,231.079681 151.76283,244.486629 155.585938,245.757812 C164.640096,248.76832 193.444262,240.565355 200.375,247.496094 C202.968778,250.089871 201.835271,254.587399 205.808594,255.96875" id="Path-6" stroke="#979797" stroke-width="2" sketch:type="MSShapeGroup"></path>
        <path d="M208.113281,262.398438 C206.214111,267.617376 207.983252,273.550929 207.070312,279.023438 C194.906231,351.939592 302.850181,370.505318 319.484375,305.660156" id="Path-7" stroke="#979797" stroke-width="2" sketch:type="MSShapeGroup"></path>
        <circle id="Oval-1" fill="#090808" sketch:type="MSShapeGroup" cx="263" cy="304" r="10"></circle>
        <path d="M41.8339844,95.1796875 L90.9648438,2.31054688 L96.0488281,98.2617188 L122.568359,80.2070312 L129.451172,97.2910156 L188.478516,45.6582031 L187.597656,128.193359 L294.519531,11.3730469 L312.464844,171.970703" id="Path-8" stroke="#979797" sketch:type="MSShapeGroup"></path>
        <path d="M325.173828,175.060547 L344.3125,139.296875 L376.867188,153.664062 L389.714844,127.623047 L415.082031,141.837891 L436.888672,78.3105469 L470.875,101.074219 L487.519531,91.0058594 L514.867188,102.117188 L552.388672,68.9140625 L588.671875,83.734375" id="Path-9" stroke="#979797" sketch:type="MSShapeGroup"></path>
        <ellipse id="Oval-2" fill="#D8D8D8" sketch:type="MSShapeGroup" cx="32.5" cy="173" rx="4.5" ry="5"></ellipse>
        <path id="Path-10" stroke="#979797" stroke-width="100" sketch:type="MSShapeGroup" d="M401.875,200.621094 L443.457031,200.621094"></path>
        <rect id="Rectangle-1" opacity="0.263642724" fill="#D8D8D8" sketch:type="MSShapeGroup" x="627.820312" y="109.01945" width="58" height="60"></rect>
        <rect id="Rectangle-2" opacity="0.263642724" fill="#D8D8D8" sketch:type="MSShapeGroup" x="566.179688" y="111.970703" width="58" height="60"></rect>
        <rect id="Rectangle-3" opacity="0.263642724" fill="#D8D8D8" sketch:type="MSShapeGroup" x="375.179688" y="176.662109" width="58" height="60"></rect>
        <rect id="Rectangle-14" opacity="0.263642724" fill="#D8D8D8" sketch:type="MSShapeGroup" x="375.871387" y="378.675781" width="58" height="60"></rect>
        <rect id="Rectangle-9" opacity="0.263642724" fill="#D8D8D8" sketch:type="MSShapeGroup" x="447.179688" y="308.878906" width="58" height="60"></rect>
        <rect id="Rectangle-10" opacity="0.263642724" fill="#D8D8D8" sketch:type="MSShapeGroup" x="374.871387" y="311.337891" width="58" height="60"></rect>
        <rect id="Rectangle-11" opacity="0.263642724" fill="#D8D8D8" sketch:type="MSShapeGroup" x="513.073631" y="242.662109" width="58" height="60"></rect>
        <rect id="Rectangle-12" opacity="0.263642724" fill="#D8D8D8" sketch:type="MSShapeGroup" x="443.765331" y="243.439453" width="58" height="60"></rect>
        <rect id="Rectangle-13" opacity="0.263642724" fill="#D8D8D8" sketch:type="MSShapeGroup" x="375.179688" y="244" width="58" height="60"></rect>
        <rect id="Rectangle-4" opacity="0.263642724" fill="#D8D8D8" sketch:type="MSShapeGroup" x="570.683594" y="176.337891" width="58" height="60"></rect>
        <rect id="Rectangle-5" opacity="0.263642724" fill="#D8D8D8" sketch:type="MSShapeGroup" x="441.179688" y="112.560547" width="58" height="60"></rect>
        <rect id="Rectangle-6" opacity="0.263642724" fill="#D8D8D8" sketch:type="MSShapeGroup" x="504.179688" y="111.970703" width="58" height="60"></rect>
        <rect id="Rectangle-7" opacity="0.263642724" fill="#D8D8D8" sketch:type="MSShapeGroup" x="441.179688" y="178" width="58" height="60"></rect>
        <rect id="Rectangle-8" opacity="0.263642724" fill="#D8D8D8" sketch:type="MSShapeGroup" x="504.179688" y="178" width="58" height="60"></rect>
        <rect id="Rectangle-15" opacity="0.263642724" fill="#D8D8D8" sketch:type="MSShapeGroup" x="309.871387" y="242.675781" width="58" height="60"></rect>
        <rect id="Rectangle-16" opacity="0.263642724" fill="#D8D8D8" sketch:type="MSShapeGroup" x="312.464844" y="308.878906" width="58" height="60"></rect>
        <rect id="Rectangle-17" opacity="0.263642724" fill="#D8D8D8" sketch:type="MSShapeGroup" x="0" y="149.675781" width="58" height="60"></rect>
    </g>
</svg>